<mxfile host="app.diagrams.net" modified="2022-12-08T07:53:23.903Z" agent="5.0 (Macintosh; Intel Mac OS X 10_15_7) AppleWebKit/537.36 (KHTML, like Gecko) Chrome/108.0.0.0 Safari/537.36" etag="qamIJcFCImKGoGLAgtPE" version="20.5.3" type="github">
  <diagram id="l6tepPp7C5GSlxWHu2CI" name="第 1 页">
    <mxGraphModel dx="1426" dy="826" grid="1" gridSize="10" guides="1" tooltips="1" connect="1" arrows="1" fold="1" page="1" pageScale="1" pageWidth="827" pageHeight="1169" math="0" shadow="0">
      <root>
        <mxCell id="0" />
        <mxCell id="1" parent="0" />
        <mxCell id="_EybPJhd7DLY3jQ4_oAs-3" style="rounded=0;orthogonalLoop=1;jettySize=auto;html=1;entryX=0.5;entryY=0;entryDx=0;entryDy=0;" edge="1" parent="1" source="_EybPJhd7DLY3jQ4_oAs-2" target="_EybPJhd7DLY3jQ4_oAs-4">
          <mxGeometry relative="1" as="geometry">
            <mxPoint x="240" y="300" as="targetPoint" />
          </mxGeometry>
        </mxCell>
        <mxCell id="_EybPJhd7DLY3jQ4_oAs-2" value="First Click" style="ellipse;whiteSpace=wrap;html=1;" vertex="1" parent="1">
          <mxGeometry x="150" y="100" width="120" height="80" as="geometry" />
        </mxCell>
        <mxCell id="_EybPJhd7DLY3jQ4_oAs-5" value="after lots of logic, we call the App function" style="edgeStyle=none;rounded=0;orthogonalLoop=1;jettySize=auto;html=1;" edge="1" parent="1" source="_EybPJhd7DLY3jQ4_oAs-4" target="_EybPJhd7DLY3jQ4_oAs-6">
          <mxGeometry relative="1" as="geometry">
            <mxPoint x="260" y="560" as="targetPoint" />
          </mxGeometry>
        </mxCell>
        <mxCell id="_EybPJhd7DLY3jQ4_oAs-4" value="queue.dispatch =&amp;nbsp;&lt;span style=&quot;color: rgb(53, 212, 199); font-family: menlo, monospace; font-size: 11px; text-align: left;&quot;&gt;dispatchSetState.bind(fisrtFiber, ...args)&lt;/span&gt;&lt;br&gt;&amp;nbsp;" style="rounded=0;whiteSpace=wrap;html=1;" vertex="1" parent="1">
          <mxGeometry x="70" y="270" width="450" height="160" as="geometry" />
        </mxCell>
        <mxCell id="_EybPJhd7DLY3jQ4_oAs-7" value="then React do some logic" style="edgeStyle=none;rounded=0;orthogonalLoop=1;jettySize=auto;html=1;fontColor=#000000;" edge="1" parent="1" source="_EybPJhd7DLY3jQ4_oAs-6" target="_EybPJhd7DLY3jQ4_oAs-8">
          <mxGeometry relative="1" as="geometry">
            <mxPoint x="300" y="880" as="targetPoint" />
          </mxGeometry>
        </mxCell>
        <mxCell id="_EybPJhd7DLY3jQ4_oAs-6" value="And execute to the line `&lt;span style=&quot;font-family: Menlo, Monaco, &amp;quot;Courier New&amp;quot;, monospace; font-size: 13px;&quot;&gt;const&lt;/span&gt;&lt;span style=&quot;font-family: Menlo, Monaco, &amp;quot;Courier New&amp;quot;, monospace; font-size: 13px;&quot;&gt; [&lt;/span&gt;&lt;span style=&quot;font-family: Menlo, Monaco, &amp;quot;Courier New&amp;quot;, monospace; font-size: 13px;&quot;&gt;state&lt;/span&gt;&lt;span style=&quot;font-family: Menlo, Monaco, &amp;quot;Courier New&amp;quot;, monospace; font-size: 13px;&quot;&gt;, &lt;/span&gt;&lt;span style=&quot;font-family: Menlo, Monaco, &amp;quot;Courier New&amp;quot;, monospace; font-size: 13px;&quot;&gt;setState&lt;/span&gt;&lt;span style=&quot;font-family: Menlo, Monaco, &amp;quot;Courier New&amp;quot;, monospace; font-size: 13px;&quot;&gt;] = &lt;/span&gt;&lt;span style=&quot;font-family: Menlo, Monaco, &amp;quot;Courier New&amp;quot;, monospace; font-size: 13px;&quot;&gt;React&lt;/span&gt;&lt;span style=&quot;font-family: Menlo, Monaco, &amp;quot;Courier New&amp;quot;, monospace; font-size: 13px;&quot;&gt;.&lt;/span&gt;&lt;span style=&quot;font-family: Menlo, Monaco, &amp;quot;Courier New&amp;quot;, monospace; font-size: 13px;&quot;&gt;useState&lt;/span&gt;&lt;span style=&quot;font-family: Menlo, Monaco, &amp;quot;Courier New&amp;quot;, monospace; font-size: 13px;&quot;&gt;(&lt;/span&gt;&lt;span style=&quot;font-family: Menlo, Monaco, &amp;quot;Courier New&amp;quot;, monospace; font-size: 13px;&quot;&gt;1&lt;/span&gt;&lt;span style=&quot;font-family: Menlo, Monaco, &amp;quot;Courier New&amp;quot;, monospace; font-size: 13px;&quot;&gt;);&lt;/span&gt;`&lt;br&gt;&lt;br&gt;The `setState` above still is&amp;nbsp;&lt;span style=&quot;color: rgb(53, 212, 199); font-family: menlo, monospace; font-size: 11px; text-align: left;&quot;&gt;dispatchSetState.bind(fisrtFiber, ...args)&lt;/span&gt;" style="rounded=0;whiteSpace=wrap;html=1;" vertex="1" parent="1">
          <mxGeometry x="80" y="640" width="570" height="120" as="geometry" />
        </mxCell>
        <mxCell id="_EybPJhd7DLY3jQ4_oAs-10" style="edgeStyle=none;rounded=0;orthogonalLoop=1;jettySize=auto;html=1;entryX=0.5;entryY=0;entryDx=0;entryDy=0;fontColor=#000000;" edge="1" parent="1" source="_EybPJhd7DLY3jQ4_oAs-8" target="_EybPJhd7DLY3jQ4_oAs-9">
          <mxGeometry relative="1" as="geometry" />
        </mxCell>
        <mxCell id="_EybPJhd7DLY3jQ4_oAs-8" value="&lt;span style=&quot;color: rgb(53, 212, 199); font-family: menlo, monospace; font-size: 11px; text-align: left;&quot;&gt;fisrtFiber.lanes &lt;/span&gt;&lt;span style=&quot;font-family: menlo, monospace; font-size: 11px; text-align: left;&quot;&gt;is SyncLane, and React create the secondFiber (which is&lt;/span&gt;&lt;span style=&quot;font-family: menlo, monospace; font-size: 11px; text-align: left;&quot;&gt;&amp;nbsp;fisrtFiber.alternate&lt;/span&gt;&lt;span style=&quot;font-family: menlo, monospace; font-size: 11px; text-align: left;&quot;&gt;). The lanes of&amp;nbsp;&lt;/span&gt;&lt;span style=&quot;font-family: menlo, monospace; font-size: 11px; text-align: left;&quot;&gt;secondFiber is NoLanes&lt;/span&gt;" style="rounded=0;whiteSpace=wrap;html=1;labelBackgroundColor=none;fontColor=#000000;" vertex="1" parent="1">
          <mxGeometry x="180" y="850" width="590" height="130" as="geometry" />
        </mxCell>
        <mxCell id="_EybPJhd7DLY3jQ4_oAs-11" style="edgeStyle=none;rounded=0;orthogonalLoop=1;jettySize=auto;html=1;fontColor=#000000;" edge="1" parent="1" source="_EybPJhd7DLY3jQ4_oAs-9" target="_EybPJhd7DLY3jQ4_oAs-12">
          <mxGeometry relative="1" as="geometry">
            <mxPoint x="380" y="1190" as="targetPoint" />
          </mxGeometry>
        </mxCell>
        <mxCell id="_EybPJhd7DLY3jQ4_oAs-9" value="Second Click" style="ellipse;whiteSpace=wrap;html=1;labelBackgroundColor=none;fontColor=#000000;" vertex="1" parent="1">
          <mxGeometry x="370" y="1020" width="190" height="100" as="geometry" />
        </mxCell>
        <mxCell id="_EybPJhd7DLY3jQ4_oAs-12" value="We do the `setState` which actually is&amp;nbsp;&lt;span style=&quot;color: rgb(53, 212, 199); font-family: menlo, monospace; font-size: 11px; text-align: left;&quot;&gt;dispatchSetState.bind(fisrtFiber, ...args),&lt;/span&gt;&lt;span style=&quot;font-family: menlo, monospace; font-size: 11px; text-align: left;&quot;&gt; And the lanes of&amp;nbsp;&lt;/span&gt;&lt;span style=&quot;font-family: menlo, monospace; font-size: 11px; text-align: left;&quot;&gt;fisrtFiber is SyncLanes, So we call the App() again.&lt;/span&gt;" style="rounded=0;whiteSpace=wrap;html=1;labelBackgroundColor=none;fontColor=#000000;" vertex="1" parent="1">
          <mxGeometry x="150" y="1180" width="610" height="150" as="geometry" />
        </mxCell>
      </root>
    </mxGraphModel>
  </diagram>
</mxfile>
